<?xml version="1.0" standalone="no"?><!DOCTYPE svg PUBLIC "-//W3C//DTD SVG 1.1//EN" "http://www.w3.org/Graphics/SVG/1.1/DTD/svg11.dtd"><svg class="icon" width="200px" height="178.40px" viewBox="0 0 1148 1024" version="1.1" xmlns="http://www.w3.org/2000/svg"><path d="M574.060606 170.666667c257.070545 0 465.454545 178.982788 465.454546 418.909091s-208.384 434.424242-465.454546 434.424242-465.454545-194.497939-465.454545-434.424242 208.384-418.909091 465.454545-418.909091z" fill="#2179FE" /><path d="M217.212121 387.878788m-217.212121 0a217.212121 217.212121 0 1 0 434.424242 0 217.212121 217.212121 0 1 0-434.424242 0Z" fill="#2179FE" /><path d="M449.939394 217.212121m-217.212121 0a217.212121 217.212121 0 1 0 434.424242 0 217.212121 217.212121 0 1 0-434.424242 0Z" fill="#2179FE" /><path d="M713.69697 217.212121m-217.212122 0a217.212121 217.212121 0 1 0 434.424243 0 217.212121 217.212121 0 1 0-434.424243 0Z" fill="#2179FE" /><path d="M930.909091 387.878788m-217.212121 0a217.212121 217.212121 0 1 0 434.424242 0 217.212121 217.212121 0 1 0-434.424242 0Z" fill="#2179FE" /><path d="M217.212121 387.878788m-93.090909 0a93.090909 93.090909 0 1 0 186.181818 0 93.090909 93.090909 0 1 0-186.181818 0Z" fill="#FFFFFF" /><path d="M449.939394 217.212121m-93.090909 0a93.090909 93.090909 0 1 0 186.181818 0 93.090909 93.090909 0 1 0-186.181818 0Z" fill="#FFFFFF" /><path d="M930.909091 387.878788m-93.090909 0a93.090909 93.090909 0 1 0 186.181818 0 93.090909 93.090909 0 1 0-186.181818 0Z" fill="#FFFFFF" /><path d="M713.69697 217.212121m-93.090909 0a93.090909 93.090909 0 1 0 186.181818 0 93.090909 93.090909 0 1 0-186.181818 0Z" fill="#FFFFFF" /><path d="M449.241212 463.794424l-87.58303 109.893818c-84.588606 106.139152-9.929697 264.129939 124.819394 264.12994h175.16606c134.749091 0 209.454545-157.975273 124.819394-264.12994l-87.58303-109.893818a159.185455 159.185455 0 0 0-249.638788 0z" fill="#FFFFFF" /></svg>